<?xml version="1.0" standalone="no"?>
<!DOCTYPE svg PUBLIC "-//W3C//DTD SVG 20010904//EN"
 "http://www.w3.org/TR/2001/REC-SVG-20010904/DTD/svg10.dtd">
<svg version="1.0" xmlns="http://www.w3.org/2000/svg"
 width="1024.000000pt" height="559.000000pt" viewBox="0 0 1024.000000 559.000000"
 preserveAspectRatio="xMidYMid meet">

<g transform="translate(0.000000,559.000000) scale(0.100000,-0.100000)"
fill="#000000" stroke="none">
<path d="M6941 4443 c7 -12 15 -20 18 -17 3 2 -3 12 -13 22 -17 16 -18 16 -5
-5z"/>
<path d="M7030 4175 c-13 -14 -20 -25 -16 -25 5 0 3 -7 -4 -16 -11 -12 -11
-15 1 -12 8 2 13 -3 11 -10 -1 -8 2 -11 7 -7 7 4 7 15 1 33 -9 24 -8 25 3 10
8 -10 16 -16 18 -14 2 3 4 -11 3 -30 -1 -18 2 -31 7 -28 12 7 11 75 -1 94 -6
9 -5 17 3 22 7 5 8 8 1 8 -6 0 -21 -11 -34 -25z"/>
<path d="M6969 4083 c-7 -10 -9 -15 -5 -11 5 4 16 2 25 -5 14 -10 14 -10 4 4
-7 9 -10 19 -6 22 3 4 4 7 1 7 -3 0 -12 -8 -19 -17z"/>
<path d="M3805 4030 c-65 -14 -117 -63 -135 -128 -6 -24 -10 -323 -10 -854 l0
-818 755 0 754 0 -2 -322 c-2 -305 -1 -325 18 -356 11 -17 27 -35 37 -38 10
-3 18 -10 18 -15 0 -8 -458 -16 -552 -9 -18 1 -28 -4 -28 -12 0 -8 -3 -9 -8
-3 -4 6 -36 11 -71 12 -69 2 -85 10 -79 39 2 11 -3 25 -12 32 -8 8 -9 11 -2 7
6 -3 12 -1 12 4 0 6 1 14 3 18 1 3 -6 7 -15 9 -10 1 -16 -3 -15 -9 1 -6 -8
-13 -21 -15 -13 -2 -20 -8 -16 -14 5 -7 2 -8 -7 -2 -28 17 -42 13 -24 -7 10
-10 21 -17 25 -14 4 2 7 -1 8 -8 1 -12 9 -48 12 -57 1 -3 2 -8 1 -12 0 -4 6
-5 14 -2 8 4 16 1 16 -5 1 -6 3 -15 4 -21 1 -5 3 -13 4 -17 1 -5 6 -1 11 7 7
11 9 8 7 -14 -1 -18 4 -31 12 -34 8 -2 11 0 8 5 -3 5 0 10 8 10 8 0 13 -2 10
-5 -2 -2 2 -17 10 -33 11 -20 12 -30 3 -35 -7 -5 -8 -3 -3 7 8 12 6 12 -8 0
-12 -9 -14 -18 -7 -31 5 -9 6 -21 2 -25 -4 -5 -2 -5 5 -1 7 4 9 14 6 24 -6 15
-5 15 10 3 9 -7 14 -18 10 -25 -4 -6 1 -5 10 3 15 12 17 11 18 -5 1 -11 1 -22
1 -25 -1 -3 5 -6 12 -6 6 0 13 12 13 26 1 19 0 21 -5 9 -6 -15 -10 -13 -21 13
-9 21 -16 27 -21 19 -4 -7 -10 -8 -13 -4 -3 5 1 15 8 21 11 10 15 9 20 -7 4
-11 10 -18 15 -15 5 3 11 1 15 -5 4 -6 11 -8 16 -5 5 4 4 -6 -2 -22 -6 -15
-11 -30 -11 -33 0 -3 -3 -11 -6 -18 -4 -11 -6 -11 -13 0 -7 10 -9 8 -10 -7 l0
-20 -9 20 -9 20 0 -20 c-1 -17 -3 -17 -11 -5 -8 13 -10 12 -10 -3 0 -10 -8
-21 -17 -24 -26 -9 -54 -44 -46 -56 4 -6 1 -7 -6 -3 -7 5 -10 14 -7 21 3 8 -3
19 -12 27 -15 12 -16 11 -4 -4 9 -11 10 -18 2 -23 -6 -3 -7 -11 -4 -17 5 -7 2
-8 -5 -4 -7 5 -10 14 -7 22 3 7 1 16 -5 19 -5 4 -9 3 -8 -2 4 -24 -2 -53 -11
-48 -5 3 -7 13 -4 23 5 16 5 16 -6 0 -6 -10 -17 -18 -25 -18 -18 0 -46 -40
-38 -54 3 -6 0 -5 -8 1 -21 20 -29 15 -29 -18 0 -28 -2 -30 -17 -18 -11 10
-14 10 -9 2 4 -9 1 -13 -10 -13 -11 0 -15 -6 -11 -20 3 -11 1 -18 -3 -15 -11
7 -42 -24 -35 -36 4 -5 -3 -9 -14 -9 -12 0 -21 5 -21 12 0 6 -3 8 -6 5 -4 -4
-1 -14 7 -24 13 -16 11 -16 -16 1 l-30 19 19 -22 c19 -21 19 -21 1 -15 -14 6
-16 4 -10 -7 7 -12 6 -12 -7 -1 -13 11 -16 10 -14 -4 0 -9 -6 -19 -14 -21 -13
-4 -13 -3 0 6 12 9 11 11 -8 11 -20 0 -22 -2 -11 -22 11 -21 11 -22 -5 -9 -15
12 -15 11 -7 -10 5 -13 14 -23 21 -21 6 1 8 -2 5 -8 -4 -6 -10 -9 -13 -6 -3 3
-12 -3 -19 -14 -8 -11 -19 -17 -25 -14 -7 4 -8 2 -4 -4 4 -7 14 -12 22 -12 8
0 14 -4 14 -9 0 -5 10 -10 23 -11 12 -2 515 -4 1117 -4 1022 -1 1101 0 1185
17 109 22 182 51 277 108 181 110 321 297 372 499 32 128 37 306 33 1230 -5
1020 -6 1042 -21 1052 -8 5 -8 8 0 8 14 0 16 60 4 80 -7 11 -10 8 -10 -15 l0
-30 -20 25 c-15 18 -18 20 -13 6 4 -13 3 -17 -5 -12 -8 5 -10 2 -6 -8 4 -10 1
-16 -7 -16 -11 0 -11 -2 -2 -8 15 -9 6 -52 -11 -52 -6 0 -4 -5 4 -10 12 -8 11
-10 -7 -10 -17 0 -21 5 -18 20 2 12 0 18 -6 15 -5 -4 -7 -10 -4 -15 3 -5 1
-11 -5 -15 -6 -4 -8 -11 -5 -16 4 -5 -1 -9 -10 -9 -8 0 -18 -7 -21 -15 -4 -8
-10 -13 -14 -10 -5 3 -6 -4 -3 -15 5 -20 17 -19 19 1 1 5 2 14 3 19 0 6 9 10
19 10 16 -1 16 -1 -1 -11 -9 -6 -15 -14 -12 -19 3 -5 1 -11 -5 -15 -6 -4 -8
-10 -6 -14 3 -4 -7 -8 -20 -9 -15 -1 -23 2 -19 8 4 6 11 7 17 4 6 -4 6 2 -1
15 -14 25 -23 28 -14 4 4 -11 3 -14 -6 -9 -6 4 -11 4 -10 -1 2 -8 -6 -34 -22
-68 -8 -17 -9 -17 -5 5 5 24 4 24 -9 6 -8 -11 -15 -27 -15 -35 0 -13 -2 -13
-9 -3 -6 10 -10 8 -14 -8 -4 -15 -11 -21 -21 -17 -11 4 -16 1 -16 -11 0 -15
-2 -15 -10 -2 -8 13 -10 13 -10 -2 0 -9 -5 -20 -12 -24 -7 -5 -8 -3 -3 6 5 9
4 11 -4 6 -9 -6 -8 -14 5 -34 l17 -27 -22 20 c-12 11 -22 15 -21 10 5 -21 0
-36 -10 -30 -7 4 -7 -2 0 -19 6 -17 6 -27 -2 -32 -7 -4 -8 -3 -4 4 4 7 2 12
-4 12 -6 0 -9 4 -5 9 3 5 0 13 -6 17 -7 4 -9 3 -5 -4 3 -6 -1 -15 -10 -20 -11
-6 -13 -11 -5 -16 6 -4 11 -2 11 5 0 7 3 9 7 6 8 -8 -36 -57 -51 -57 -5 0 -2
6 9 13 14 11 15 16 5 22 -8 5 -11 4 -7 -2 4 -6 0 -14 -9 -17 -14 -5 -14 -9 -3
-23 12 -15 12 -16 -3 -10 -13 4 -15 2 -11 -11 6 -15 5 -16 -12 -2 -17 14 -18
14 -6 -8 9 -18 9 -22 -1 -20 -7 2 -12 -2 -11 -9 1 -6 -5 -17 -14 -25 -9 -7
-14 -8 -10 -2 4 7 0 14 -8 17 -11 5 -12 1 -5 -21 10 -26 10 -26 -6 -7 -16 20
-16 20 -11 -2 3 -15 1 -20 -9 -16 -8 3 -12 9 -9 13 3 4 -3 14 -13 21 -15 13
-16 12 -4 -3 9 -11 10 -18 2 -23 -6 -3 -8 -11 -4 -16 3 -5 10 -6 16 -3 7 4 8
2 4 -5 -6 -9 -11 -9 -21 -1 -10 9 -14 6 -18 -12 l-4 -23 -2 23 c0 12 -5 22
-10 22 -10 0 -8 66 2 77 4 3 1 13 -6 21 -9 11 -5 11 15 -2 15 -10 25 -23 21
-29 -3 -6 -1 -7 6 -3 9 6 9 11 0 22 -15 19 -16 78 -1 96 8 11 7 14 -8 15 -17
2 -18 -4 -13 -45 5 -47 -3 -57 -11 -11 -2 13 -10 23 -17 21 -10 -3 -10 0 0 12
7 8 9 21 5 27 -4 7 -3 9 4 5 6 -3 13 -2 17 4 4 6 10 8 15 5 5 -3 12 0 16 6 4
8 3 9 -4 5 -14 -9 -16 6 -2 20 6 6 5 15 -1 24 -10 13 -10 13 -6 0 3 -9 -2 -25
-10 -35 -13 -19 -14 -18 -8 8 5 17 2 33 -6 44 -12 14 -12 16 0 8 11 -6 13 -2
9 19 -3 14 -1 29 3 32 5 3 9 10 9 15 0 6 -5 7 -11 3 -16 -9 6 29 25 45 9 8 14
17 11 21 -3 4 2 13 10 20 25 21 13 -25 -14 -54 -15 -15 -19 -26 -12 -31 6 -3
8 -11 5 -17 -4 -7 -2 -8 5 -4 8 6 9 12 2 20 -8 9 -4 19 12 34 13 12 26 20 28
17 3 -2 5 7 5 20 0 14 -4 26 -8 26 -19 3 -24 5 -35 12 -14 9 -14 8 -18 -23 -1
-11 -4 -23 -5 -27 -1 -5 -2 -12 -1 -17 1 -5 -5 -4 -14 4 -10 8 -12 17 -6 24 9
11 -14 55 -25 48 -3 -2 -9 0 -12 4 -4 4 -1 4 6 0 22 -13 23 19 3 67 -11 26
-17 47 -14 47 4 0 2 5 -5 12 -14 14 -16 62 -2 53 15 -9 12 1 -4 14 -11 9 -13
1 -14 -45 0 -71 -9 -81 -11 -12 -3 108 -11 173 -21 176 -6 2 -19 20 -29 40
-11 21 -34 51 -52 67 l-34 30 -1210 1 c-665 0 -1223 -3 -1240 -6z m-8 -117
c-3 -5 537 -7 1200 -5 888 2 1209 -1 1219 -9 11 -9 14 -65 14 -278 l0 -266
-480 3 c-528 3 -527 3 -563 -57 -15 -26 -17 -73 -17 -484 l0 -455 -42 -5 c-24
-2 -302 -4 -618 -4 -525 -1 -700 4 -714 17 -7 8 -19 1527 -11 1539 3 6 8 11
11 11 3 0 3 -3 1 -7z m2570 -550 c-1 -98 -2 -20 -2 172 -1 193 1 273 2 178 2
-94 2 -252 0 -350z m148 198 c3 -5 2 -12 -3 -15 -5 -3 -9 1 -9 9 0 17 3 19 12
6z m-51 -211 c-6 -6 -10 -3 -10 10 0 13 4 16 10 10 7 -7 7 -13 0 -20z m267
-43 c-10 -9 -11 -8 -5 6 3 10 9 15 12 12 3 -3 0 -11 -7 -18z m-523 -250 l2
-168 -123 2 c-111 3 -127 1 -160 -18 -19 -12 -44 -34 -54 -50 -10 -15 -28 -36
-40 -46 -13 -10 -23 -24 -23 -31 0 -7 -12 -30 -26 -51 -14 -21 -23 -44 -20
-51 3 -8 1 -14 -3 -14 -5 0 -7 -9 -4 -20 3 -12 0 -20 -8 -20 -8 0 -5 -6 7 -15
19 -14 18 -14 -3 -10 -15 2 -20 -1 -19 -13 3 -19 7 -21 71 -24 l50 -3 2 -418
2 -417 -87 -1 c-471 -7 -493 -6 -508 8 -12 12 -14 127 -14 761 0 411 4 752 8
759 11 18 38 18 507 13 l440 -5 3 -168z m249 18 c0 -8 -4 -12 -9 -9 -5 3 -6
10 -3 15 9 13 12 11 12 -6z m43 -29 c0 -7 -40 -14 -44 -7 -3 4 6 8 20 9 13 1
24 0 24 -2z m-440 -226 c0 -5 9 -19 20 -30 18 -18 33 -20 150 -20 117 0 132 2
150 20 11 11 20 25 20 30 0 6 20 10 45 10 35 0 52 -6 70 -25 l25 -24 0 -588
c0 -517 -2 -591 -16 -611 -15 -22 -17 -22 -290 -22 -261 0 -275 1 -294 20 -20
20 -20 33 -20 614 l0 595 26 20 c28 22 114 30 114 11z m-213 -122 c-1 -32 -6
-58 -11 -58 -4 0 -6 8 -4 18 3 11 0 19 -7 19 -7 0 -12 -8 -10 -18 4 -18 -9
-32 -31 -35 -6 -1 -11 5 -11 12 0 8 4 14 9 14 4 0 8 -5 8 -11 0 -5 4 -8 9 -5
5 3 7 19 6 36 -2 19 1 27 8 23 6 -4 8 0 4 11 -5 11 -3 15 5 10 7 -5 9 1 6 18
-3 16 0 25 8 25 10 0 13 -17 11 -59z m-2 -79 c-4 -6 -10 -8 -13 -5 -3 3 -12 0
-21 -7 -14 -11 -14 -10 -2 6 14 18 47 24 36 6z m-1338 -1164 c0 -8 -4 -12 -9
-9 -5 3 -6 10 -3 15 9 13 12 11 12 -6z m69 -91 c1 -9 0 -13 -4 -10 -3 4 -7 14
-8 22 -1 9 0 13 4 10 3 -4 7 -14 8 -22z m-39 -226 c2 -18 0 -20 -7 -8 -8 12
-10 13 -10 1 0 -8 -3 -11 -6 -8 -4 4 -1 13 6 22 16 19 15 19 17 -7z m-144 -45
c-7 -2 -13 -14 -14 -26 0 -12 -3 -16 -6 -9 -7 18 4 42 19 41 10 0 10 -2 1 -6z
m-56 -55 c-3 -8 -6 -5 -6 6 -1 11 2 17 5 13 3 -3 4 -12 1 -19z"/>
<path d="M4640 3320 c0 -11 -8 -24 -17 -27 -10 -4 -40 -28 -67 -54 -27 -27
-53 -46 -58 -43 -4 3 -8 1 -8 -4 0 -14 -107 -122 -114 -115 -3 4 -6 -1 -6 -9
0 -9 -7 -19 -16 -22 -9 -4 -14 -13 -10 -22 3 -8 2 -13 -2 -10 -4 3 -13 -4 -19
-14 -16 -25 -2 -28 160 -29 l135 -2 22 28 c21 27 22 34 15 143 -4 63 -6 134
-5 158 0 23 -2 42 -5 42 -3 0 -5 -9 -5 -20z"/>
<path d="M6454 2482 c4 -7 3 -12 -1 -12 -5 0 -26 -16 -46 -35 -20 -19 -34 -35
-31 -35 7 0 -32 -37 -97 -92 -102 -86 -111 -95 -94 -102 9 -3 70 -6 136 -6
152 0 151 -1 148 164 -1 68 -6 119 -12 123 -6 3 -7 1 -3 -5z"/>
<path d="M6424 3738 c1 -7 5 -19 9 -25 5 -7 6 -13 3 -13 -3 0 4 -21 15 -47 11
-25 18 -52 15 -59 -3 -8 -1 -16 5 -19 5 -4 9 -3 8 2 -1 4 -1 14 0 22 1 11 4
11 19 0 15 -13 16 -12 3 4 -13 16 -8 22 14 17 6 -1 4 4 -2 11 -15 15 -17 33
-4 24 5 -3 12 -1 15 3 3 5 -6 8 -20 8 -14 -1 -29 -8 -34 -16 -8 -13 -10 -13
-10 1 0 8 6 21 13 29 10 12 9 12 -6 0 -16 -12 -18 -11 -13 13 3 17 0 26 -7 24
-6 -1 -11 3 -12 10 0 6 -3 14 -7 18 -3 4 -6 1 -4 -7z m66 -112 c-14 -14 -22
-2 -14 18 5 14 9 15 15 4 4 -7 4 -17 -1 -22z"/>
<path d="M6516 3368 c3 -5 10 -6 15 -3 13 9 11 12 -6 12 -8 0 -12 -4 -9 -9z"/>
<path d="M6564 3179 c-3 -6 -1 -15 5 -20 6 -5 9 -6 6 -3 -3 4 0 13 6 21 8 9 8
13 1 13 -6 0 -14 -5 -18 -11z"/>
<path d="M6469 3178 c0 -2 -2 -18 -3 -36 -3 -33 7 -51 18 -33 4 5 2 12 -2 15
-5 3 -8 17 -7 31 2 14 1 25 -1 25 -2 0 -4 -1 -5 -2z"/>
<path d="M3678 1978 c-7 -17 13 -40 45 -51 9 -4 17 -10 16 -14 -1 -4 -1 -15 0
-23 1 -13 2 -13 11 0 9 13 10 13 11 0 1 -8 1 -18 1 -21 -1 -3 6 -6 14 -6 18 0
18 5 -1 24 -8 8 -12 20 -8 26 3 7 3 9 -1 5 -5 -4 -19 4 -33 18 -13 13 -28 24
-33 24 -5 0 -10 8 -12 18 -3 15 -4 15 -10 0z"/>
<path d="M3790 1891 c8 -6 17 -8 20 -6 3 2 11 -5 18 -16 14 -21 3 -26 -17 -6
-10 10 -11 8 -5 -6 4 -12 2 -17 -6 -15 -7 2 -13 -8 -14 -24 -2 -34 2 -35 14
-4 6 17 16 24 35 24 19 0 23 -3 14 -9 -13 -8 -5 -13 15 -10 5 1 4 -4 -2 -12
-7 -8 -10 -17 -7 -20 3 -4 2 -4 -2 -1 -5 3 -9 10 -9 15 -3 22 -6 23 -15 4 -9
-19 -9 -18 -5 3 2 12 1 22 -4 22 -4 0 -10 -11 -12 -25 -3 -13 -2 -24 1 -23 3
0 9 -1 14 -2 4 -1 13 -3 20 -4 6 -1 11 -8 9 -15 -1 -7 2 -10 7 -7 5 4 14 -1
19 -10 8 -14 10 -15 15 -1 4 10 14 14 27 12 11 -2 18 0 15 5 -3 5 -14 7 -25 5
-12 -2 -18 0 -16 4 8 12 48 7 73 -9 18 -12 20 -17 10 -30 -10 -13 -10 -13 4
-3 9 7 19 9 23 5 4 -4 6 0 4 8 -2 11 6 15 29 14 23 0 30 3 25 14 -3 10 -1 13
6 8 7 -4 12 -2 12 5 0 6 9 1 20 -12 11 -13 20 -19 19 -14 -3 23 2 35 15 35 8
0 17 -6 19 -12 4 -9 6 -9 6 1 1 11 5 10 16 -5 13 -18 14 -18 9 6 -5 19 -3 22
5 10 6 -8 14 -15 18 -16 20 -2 42 -17 38 -24 -3 -5 0 -12 6 -16 7 -4 9 -3 6 3
-4 6 0 14 8 17 12 4 14 0 11 -20 -3 -15 -2 -23 2 -19 4 3 8 11 8 16 1 5 2 13
3 17 0 4 12 8 26 8 13 0 22 -2 19 -5 -3 -4 -10 -6 -15 -6 -5 0 -8 -4 -6 -10 1
-5 6 -9 11 -7 5 2 13 -3 19 -10 6 -10 7 -8 3 4 -3 10 0 20 7 24 7 4 9 4 5 -1
-10 -10 10 -47 22 -40 4 3 10 2 13 -2 2 -5 2 -2 0 6 -3 11 -1 12 12 1 8 -7 15
-9 15 -5 0 4 6 2 13 -4 8 -6 17 -9 21 -6 3 3 2 -1 -4 -7 -15 -18 -12 -26 7
-24 12 1 18 -7 19 -21 2 -37 4 -39 14 -23 6 10 10 11 10 3 0 -7 5 -13 11 -13
5 0 7 5 3 12 -4 6 -3 8 4 5 5 -4 8 -17 5 -30 -3 -14 -2 -18 4 -10 5 7 23 15
40 16 16 2 35 7 42 11 22 14 50 85 61 152 5 38 12 84 15 102 l6 32 -393 0
c-264 -1 -396 -4 -405 -12 -7 -6 -13 -7 -13 -2 0 5 -24 10 -53 11 -35 2 -47 0
-37 -6z m95 -110 c0 -23 -3 -27 -13 -19 -11 9 -11 13 0 19 7 5 9 9 5 9 -5 0
-5 5 -2 10 9 15 11 13 10 -19z m364 22 c-4 -23 3 -31 24 -27 20 4 20 4 2 -5
-13 -5 -27 -4 -40 2 -11 6 -24 10 -28 9 -5 -1 -6 2 -2 8 3 6 10 8 15 5 5 -3
11 -1 15 5 7 12 16 13 14 3z m-248 -46 c-10 -9 -11 -8 -5 6 3 10 9 15 12 12 3
-3 0 -11 -7 -18z m376 -39 c-3 -8 -6 -5 -6 6 -1 11 2 17 5 13 3 -3 4 -12 1
-19z m228 -85 c-14 -14 -29 -23 -31 -20 -3 3 6 14 20 25 14 10 22 23 18 27 -4
5 -1 5 7 0 10 -6 7 -13 -14 -32z"/>
<path d="M4416 1692 c-3 -5 1 -9 9 -9 8 0 12 4 9 9 -3 4 -7 8 -9 8 -2 0 -6 -4
-9 -8z"/>
<path d="M4455 1651 c-3 -5 -2 -12 3 -15 5 -3 9 1 9 9 0 17 -3 19 -12 6z"/>
<path d="M4464 1432 c-7 -4 -14 -24 -17 -44 -4 -30 -2 -35 11 -31 11 5 13 3 7
-8 -7 -11 -6 -12 7 -2 8 7 18 9 22 5 4 -4 13 -7 19 -7 7 -1 11 -6 10 -13 -2
-6 4 -9 12 -6 17 7 18 13 5 34 -8 12 -10 12 -10 1 0 -11 -5 -10 -20 4 -11 10
-17 21 -15 25 3 4 -2 13 -10 20 -8 7 -12 16 -9 21 6 11 3 11 -12 1z m16 -57
c4 3 14 -3 21 -13 12 -15 12 -15 -1 -5 -15 11 -20 13 -39 13 -4 0 -6 12 -2 28
l6 27 3 -28 c2 -15 7 -25 12 -22z"/>
<path d="M4426 1393 c-6 -14 -5 -15 5 -6 7 7 10 15 7 18 -3 3 -9 -2 -12 -12z"/>
<path d="M4380 1366 c0 -2 8 -10 18 -17 15 -13 16 -12 3 4 -13 16 -21 21 -21
13z"/>
<path d="M4238 983 c7 -3 16 -2 19 1 4 3 -2 6 -13 5 -11 0 -14 -3 -6 -6z"/>
<path d="M3600 845 c0 -5 50 -27 88 -39 13 -5 22 -3 22 3 0 6 -8 11 -19 11
-10 0 -35 7 -55 15 -20 8 -36 13 -36 10z"/>
<path d="M4074 824 c7 -15 13 -19 18 -11 4 7 3 14 -2 15 -6 2 -8 7 -6 11 3 4
-1 8 -8 8 -10 0 -10 -6 -2 -23z"/>
<path d="M3927 759 c7 -7 15 -10 18 -7 3 3 -2 9 -12 12 -14 6 -15 5 -6 -5z"/>
<path d="M3973 753 c9 -2 25 -2 35 0 9 3 1 5 -18 5 -19 0 -27 -2 -17 -5z"/>
</g>
</svg>
